<mxfile host="app.diagrams.net" modified="2022-10-06T04:41:21.452Z" agent="5.0 (Windows)" etag="HT3B7pwkhiXtIszlaDfz" version="20.2.7" type="github" pages="2">
  <diagram id="C5RBs43oDa-KdzZeNtuy" name="high_level">
    <mxGraphModel dx="1185" dy="660" grid="1" gridSize="10" guides="1" tooltips="1" connect="1" arrows="1" fold="1" page="1" pageScale="1" pageWidth="827" pageHeight="1169" math="0" shadow="0">
      <root>
        <mxCell id="WIyWlLk6GJQsqaUBKTNV-0" />
        <mxCell id="WIyWlLk6GJQsqaUBKTNV-1" parent="WIyWlLk6GJQsqaUBKTNV-0" />
        <mxCell id="5GUL64Nvob-jwBLmsiKS-11" style="edgeStyle=orthogonalEdgeStyle;rounded=0;orthogonalLoop=1;jettySize=auto;html=1;exitX=0.5;exitY=1;exitDx=0;exitDy=0;exitPerimeter=0;entryX=0.5;entryY=0;entryDx=0;entryDy=0;" edge="1" parent="WIyWlLk6GJQsqaUBKTNV-1" source="5GUL64Nvob-jwBLmsiKS-0" target="5GUL64Nvob-jwBLmsiKS-1">
          <mxGeometry relative="1" as="geometry" />
        </mxCell>
        <mxCell id="5GUL64Nvob-jwBLmsiKS-0" value="&lt;div&gt;Start&lt;/div&gt;" style="strokeWidth=2;html=1;shape=mxgraph.flowchart.start_1;whiteSpace=wrap;" vertex="1" parent="WIyWlLk6GJQsqaUBKTNV-1">
          <mxGeometry x="120" y="30" width="100" height="60" as="geometry" />
        </mxCell>
        <mxCell id="5GUL64Nvob-jwBLmsiKS-12" style="edgeStyle=orthogonalEdgeStyle;rounded=0;orthogonalLoop=1;jettySize=auto;html=1;exitX=0.5;exitY=1;exitDx=0;exitDy=0;entryX=0.5;entryY=0;entryDx=0;entryDy=0;entryPerimeter=0;" edge="1" parent="WIyWlLk6GJQsqaUBKTNV-1" source="5GUL64Nvob-jwBLmsiKS-1" target="5GUL64Nvob-jwBLmsiKS-2">
          <mxGeometry relative="1" as="geometry" />
        </mxCell>
        <mxCell id="5GUL64Nvob-jwBLmsiKS-1" value="Initialise peripherals, GPIO" style="rounded=0;whiteSpace=wrap;html=1;fillColor=#dae8fc;strokeColor=#6c8ebf;sketch=0;" vertex="1" parent="WIyWlLk6GJQsqaUBKTNV-1">
          <mxGeometry x="110" y="110" width="120" height="60" as="geometry" />
        </mxCell>
        <mxCell id="5GUL64Nvob-jwBLmsiKS-13" style="edgeStyle=orthogonalEdgeStyle;rounded=0;orthogonalLoop=1;jettySize=auto;html=1;" edge="1" parent="WIyWlLk6GJQsqaUBKTNV-1" source="5GUL64Nvob-jwBLmsiKS-2">
          <mxGeometry relative="1" as="geometry">
            <mxPoint x="170" y="190" as="targetPoint" />
            <Array as="points">
              <mxPoint x="290" y="260" />
              <mxPoint x="290" y="190" />
            </Array>
          </mxGeometry>
        </mxCell>
        <mxCell id="5GUL64Nvob-jwBLmsiKS-14" value="&lt;div&gt;F&lt;/div&gt;" style="edgeLabel;html=1;align=center;verticalAlign=middle;resizable=0;points=[];" vertex="1" connectable="0" parent="5GUL64Nvob-jwBLmsiKS-13">
          <mxGeometry x="-0.8462" y="3" relative="1" as="geometry">
            <mxPoint x="-10" y="-7" as="offset" />
          </mxGeometry>
        </mxCell>
        <mxCell id="5GUL64Nvob-jwBLmsiKS-15" style="edgeStyle=orthogonalEdgeStyle;rounded=0;orthogonalLoop=1;jettySize=auto;html=1;exitX=0;exitY=0.5;exitDx=0;exitDy=0;exitPerimeter=0;entryX=0.5;entryY=0;entryDx=0;entryDy=0;" edge="1" parent="WIyWlLk6GJQsqaUBKTNV-1" source="5GUL64Nvob-jwBLmsiKS-2" target="5GUL64Nvob-jwBLmsiKS-4">
          <mxGeometry relative="1" as="geometry">
            <mxPoint x="220" y="410" as="targetPoint" />
            <Array as="points">
              <mxPoint x="70" y="260" />
              <mxPoint x="70" y="320" />
              <mxPoint x="170" y="320" />
            </Array>
          </mxGeometry>
        </mxCell>
        <mxCell id="5GUL64Nvob-jwBLmsiKS-21" value="&lt;div&gt;T&lt;/div&gt;" style="edgeLabel;html=1;align=center;verticalAlign=middle;resizable=0;points=[];" vertex="1" connectable="0" parent="5GUL64Nvob-jwBLmsiKS-15">
          <mxGeometry x="-0.8733" y="2" relative="1" as="geometry">
            <mxPoint x="1" y="-12" as="offset" />
          </mxGeometry>
        </mxCell>
        <mxCell id="5GUL64Nvob-jwBLmsiKS-2" value="&lt;div&gt;AEB &lt;br&gt;&lt;/div&gt;&lt;div&gt;input high?&lt;/div&gt;" style="strokeWidth=2;html=1;shape=mxgraph.flowchart.decision;whiteSpace=wrap;fillColor=#d5e8d4;strokeColor=#82b366;" vertex="1" parent="WIyWlLk6GJQsqaUBKTNV-1">
          <mxGeometry x="120" y="210" width="100" height="100" as="geometry" />
        </mxCell>
        <mxCell id="5GUL64Nvob-jwBLmsiKS-6" value="" style="group" vertex="1" connectable="0" parent="WIyWlLk6GJQsqaUBKTNV-1">
          <mxGeometry x="105" y="360" width="130" height="70" as="geometry" />
        </mxCell>
        <mxCell id="5GUL64Nvob-jwBLmsiKS-4" value="" style="verticalLabelPosition=bottom;verticalAlign=top;html=1;shape=process;whiteSpace=wrap;rounded=1;size=0.14;arcSize=6;fillColor=#fff2cc;strokeColor=#d6b656;" vertex="1" parent="5GUL64Nvob-jwBLmsiKS-6">
          <mxGeometry width="130" height="70" as="geometry" />
        </mxCell>
        <mxCell id="5GUL64Nvob-jwBLmsiKS-5" value="&lt;div&gt;Take measurements &amp;amp; perform calculations&lt;/div&gt;" style="text;html=1;strokeColor=none;fillColor=none;align=center;verticalAlign=middle;whiteSpace=wrap;rounded=0;" vertex="1" parent="5GUL64Nvob-jwBLmsiKS-6">
          <mxGeometry x="35" y="20" width="60" height="30" as="geometry" />
        </mxCell>
        <mxCell id="5GUL64Nvob-jwBLmsiKS-34" style="edgeStyle=orthogonalEdgeStyle;rounded=0;orthogonalLoop=1;jettySize=auto;html=1;entryX=0.5;entryY=0;entryDx=0;entryDy=0;" edge="1" parent="WIyWlLk6GJQsqaUBKTNV-1" source="5GUL64Nvob-jwBLmsiKS-23" target="5GUL64Nvob-jwBLmsiKS-26">
          <mxGeometry relative="1" as="geometry">
            <Array as="points">
              <mxPoint x="250" y="510" />
              <mxPoint x="250" y="570" />
              <mxPoint x="165" y="570" />
            </Array>
          </mxGeometry>
        </mxCell>
        <mxCell id="5GUL64Nvob-jwBLmsiKS-35" value="T" style="edgeLabel;html=1;align=center;verticalAlign=middle;resizable=0;points=[];" vertex="1" connectable="0" parent="5GUL64Nvob-jwBLmsiKS-34">
          <mxGeometry x="-0.7565" y="-1" relative="1" as="geometry">
            <mxPoint x="-13" y="-11" as="offset" />
          </mxGeometry>
        </mxCell>
        <mxCell id="5GUL64Nvob-jwBLmsiKS-43" style="edgeStyle=orthogonalEdgeStyle;rounded=0;orthogonalLoop=1;jettySize=auto;html=1;exitX=0;exitY=0.5;exitDx=0;exitDy=0;exitPerimeter=0;" edge="1" parent="WIyWlLk6GJQsqaUBKTNV-1" source="5GUL64Nvob-jwBLmsiKS-23" target="5GUL64Nvob-jwBLmsiKS-37">
          <mxGeometry relative="1" as="geometry">
            <Array as="points">
              <mxPoint x="60" y="510" />
              <mxPoint x="60" y="680" />
              <mxPoint x="165" y="680" />
            </Array>
          </mxGeometry>
        </mxCell>
        <mxCell id="5GUL64Nvob-jwBLmsiKS-44" value="F" style="edgeLabel;html=1;align=center;verticalAlign=middle;resizable=0;points=[];" vertex="1" connectable="0" parent="5GUL64Nvob-jwBLmsiKS-43">
          <mxGeometry x="-0.895" y="-2" relative="1" as="geometry">
            <mxPoint x="4" y="-8" as="offset" />
          </mxGeometry>
        </mxCell>
        <mxCell id="5GUL64Nvob-jwBLmsiKS-23" value="&lt;div&gt;Send warning?&lt;/div&gt;" style="strokeWidth=2;html=1;shape=mxgraph.flowchart.decision;whiteSpace=wrap;fillColor=#d5e8d4;strokeColor=#82b366;" vertex="1" parent="WIyWlLk6GJQsqaUBKTNV-1">
          <mxGeometry x="120" y="460" width="100" height="100" as="geometry" />
        </mxCell>
        <mxCell id="5GUL64Nvob-jwBLmsiKS-24" style="edgeStyle=orthogonalEdgeStyle;rounded=0;orthogonalLoop=1;jettySize=auto;html=1;" edge="1" parent="WIyWlLk6GJQsqaUBKTNV-1" source="5GUL64Nvob-jwBLmsiKS-4" target="5GUL64Nvob-jwBLmsiKS-23">
          <mxGeometry relative="1" as="geometry" />
        </mxCell>
        <mxCell id="5GUL64Nvob-jwBLmsiKS-25" value="" style="group" vertex="1" connectable="0" parent="WIyWlLk6GJQsqaUBKTNV-1">
          <mxGeometry x="100" y="585" width="130" height="70" as="geometry" />
        </mxCell>
        <mxCell id="5GUL64Nvob-jwBLmsiKS-26" value="" style="verticalLabelPosition=bottom;verticalAlign=top;html=1;shape=process;whiteSpace=wrap;rounded=1;size=0.14;arcSize=6;fillColor=#fff2cc;strokeColor=#d6b656;" vertex="1" parent="5GUL64Nvob-jwBLmsiKS-25">
          <mxGeometry width="130" height="70" as="geometry" />
        </mxCell>
        <mxCell id="5GUL64Nvob-jwBLmsiKS-27" value="&lt;div&gt;Send warning&lt;/div&gt;&lt;div&gt;via digital output&lt;br&gt;&lt;/div&gt;" style="text;html=1;strokeColor=none;fillColor=none;align=center;verticalAlign=middle;whiteSpace=wrap;rounded=0;" vertex="1" parent="5GUL64Nvob-jwBLmsiKS-25">
          <mxGeometry x="35" y="20" width="60" height="30" as="geometry" />
        </mxCell>
        <mxCell id="5GUL64Nvob-jwBLmsiKS-29" style="edgeStyle=orthogonalEdgeStyle;rounded=0;orthogonalLoop=1;jettySize=auto;html=1;" edge="1" parent="WIyWlLk6GJQsqaUBKTNV-1" source="5GUL64Nvob-jwBLmsiKS-26">
          <mxGeometry relative="1" as="geometry">
            <mxPoint x="290" y="190" as="targetPoint" />
            <Array as="points">
              <mxPoint x="450" y="665" />
              <mxPoint x="450" y="190" />
            </Array>
          </mxGeometry>
        </mxCell>
        <mxCell id="5GUL64Nvob-jwBLmsiKS-36" value="" style="group" vertex="1" connectable="0" parent="WIyWlLk6GJQsqaUBKTNV-1">
          <mxGeometry x="100" y="720" width="130" height="70" as="geometry" />
        </mxCell>
        <mxCell id="5GUL64Nvob-jwBLmsiKS-37" value="" style="verticalLabelPosition=bottom;verticalAlign=top;html=1;shape=process;whiteSpace=wrap;rounded=1;size=0.14;arcSize=6;fillColor=#fff2cc;strokeColor=#d6b656;" vertex="1" parent="5GUL64Nvob-jwBLmsiKS-36">
          <mxGeometry width="130" height="70" as="geometry" />
        </mxCell>
        <mxCell id="5GUL64Nvob-jwBLmsiKS-38" value="Output to 8-bit DAC" style="text;html=1;strokeColor=none;fillColor=none;align=center;verticalAlign=middle;whiteSpace=wrap;rounded=0;" vertex="1" parent="5GUL64Nvob-jwBLmsiKS-36">
          <mxGeometry x="35" y="20" width="60" height="30" as="geometry" />
        </mxCell>
        <mxCell id="5GUL64Nvob-jwBLmsiKS-45" style="edgeStyle=orthogonalEdgeStyle;rounded=0;orthogonalLoop=1;jettySize=auto;html=1;" edge="1" parent="WIyWlLk6GJQsqaUBKTNV-1" source="5GUL64Nvob-jwBLmsiKS-37">
          <mxGeometry relative="1" as="geometry">
            <mxPoint x="450" y="660" as="targetPoint" />
            <Array as="points">
              <mxPoint x="165" y="810" />
              <mxPoint x="450" y="810" />
            </Array>
          </mxGeometry>
        </mxCell>
      </root>
    </mxGraphModel>
  </diagram>
  <diagram name="low_level" id="D6Tcyl-72ndJnhvJp-jU">
    <mxGraphModel dx="1237" dy="689" grid="1" gridSize="10" guides="1" tooltips="1" connect="1" arrows="1" fold="1" page="1" pageScale="1" pageWidth="827" pageHeight="1169" math="0" shadow="0">
      <root>
        <mxCell id="BE4b9odS7JJcmuCLsfvv-0" />
        <mxCell id="BE4b9odS7JJcmuCLsfvv-1" parent="BE4b9odS7JJcmuCLsfvv-0" />
        <mxCell id="Fx_FsqtWgzgns6y88H-w-136" value="" style="rounded=0;whiteSpace=wrap;html=1;strokeColor=#d6b656;opacity=40;fillColor=#fff2cc;strokeWidth=3;" vertex="1" parent="BE4b9odS7JJcmuCLsfvv-1">
          <mxGeometry x="888.5" y="690" width="190" height="410" as="geometry" />
        </mxCell>
        <mxCell id="BE4b9odS7JJcmuCLsfvv-2" style="edgeStyle=orthogonalEdgeStyle;rounded=0;orthogonalLoop=1;jettySize=auto;html=1;exitX=0.5;exitY=1;exitDx=0;exitDy=0;exitPerimeter=0;entryX=0.5;entryY=0;entryDx=0;entryDy=0;" edge="1" parent="BE4b9odS7JJcmuCLsfvv-1" source="BE4b9odS7JJcmuCLsfvv-3" target="BE4b9odS7JJcmuCLsfvv-5">
          <mxGeometry relative="1" as="geometry" />
        </mxCell>
        <mxCell id="BE4b9odS7JJcmuCLsfvv-3" value="&lt;div&gt;Start&lt;/div&gt;" style="strokeWidth=2;html=1;shape=mxgraph.flowchart.start_1;whiteSpace=wrap;" vertex="1" parent="BE4b9odS7JJcmuCLsfvv-1">
          <mxGeometry x="120" y="30" width="100" height="60" as="geometry" />
        </mxCell>
        <mxCell id="BE4b9odS7JJcmuCLsfvv-4" style="edgeStyle=orthogonalEdgeStyle;rounded=0;orthogonalLoop=1;jettySize=auto;html=1;exitX=0.5;exitY=1;exitDx=0;exitDy=0;" edge="1" parent="BE4b9odS7JJcmuCLsfvv-1" source="BE4b9odS7JJcmuCLsfvv-5" target="Fx_FsqtWgzgns6y88H-w-5">
          <mxGeometry relative="1" as="geometry" />
        </mxCell>
        <mxCell id="BE4b9odS7JJcmuCLsfvv-5" value="Initialise peripherals, GPIO" style="rounded=0;whiteSpace=wrap;html=1;fillColor=#dae8fc;strokeColor=#6c8ebf;sketch=0;" vertex="1" parent="BE4b9odS7JJcmuCLsfvv-1">
          <mxGeometry x="110" y="110" width="120" height="60" as="geometry" />
        </mxCell>
        <mxCell id="BE4b9odS7JJcmuCLsfvv-8" style="edgeStyle=orthogonalEdgeStyle;rounded=0;orthogonalLoop=1;jettySize=auto;html=1;exitX=0;exitY=0.5;exitDx=0;exitDy=0;exitPerimeter=0;" edge="1" parent="BE4b9odS7JJcmuCLsfvv-1" source="BE4b9odS7JJcmuCLsfvv-10">
          <mxGeometry relative="1" as="geometry">
            <mxPoint x="170" y="190" as="targetPoint" />
            <Array as="points">
              <mxPoint x="60" y="360" />
              <mxPoint x="60" y="190" />
            </Array>
          </mxGeometry>
        </mxCell>
        <mxCell id="BE4b9odS7JJcmuCLsfvv-9" value="F" style="edgeLabel;html=1;align=center;verticalAlign=middle;resizable=0;points=[];" vertex="1" connectable="0" parent="BE4b9odS7JJcmuCLsfvv-8">
          <mxGeometry x="-0.8733" y="2" relative="1" as="geometry">
            <mxPoint x="1" y="-12" as="offset" />
          </mxGeometry>
        </mxCell>
        <mxCell id="ljqrpDVs2nWzhOfp307L-33" style="edgeStyle=orthogonalEdgeStyle;rounded=0;orthogonalLoop=1;jettySize=auto;html=1;entryX=0.5;entryY=0;entryDx=0;entryDy=0;entryPerimeter=0;endArrow=classic;endFill=1;exitX=1;exitY=0.5;exitDx=0;exitDy=0;exitPerimeter=0;" edge="1" parent="BE4b9odS7JJcmuCLsfvv-1" source="BE4b9odS7JJcmuCLsfvv-10" target="iDULUNQiDRfPk5zGLDx2-2">
          <mxGeometry relative="1" as="geometry">
            <Array as="points">
              <mxPoint x="260" y="360" />
              <mxPoint x="260" y="420" />
              <mxPoint x="170" y="420" />
            </Array>
          </mxGeometry>
        </mxCell>
        <mxCell id="ljqrpDVs2nWzhOfp307L-34" value="T" style="edgeLabel;html=1;align=center;verticalAlign=middle;resizable=0;points=[];" vertex="1" connectable="0" parent="ljqrpDVs2nWzhOfp307L-33">
          <mxGeometry x="-0.9036" relative="1" as="geometry">
            <mxPoint x="-1" y="-10" as="offset" />
          </mxGeometry>
        </mxCell>
        <mxCell id="BE4b9odS7JJcmuCLsfvv-10" value="&lt;div&gt;AEB &lt;br&gt;&lt;/div&gt;&lt;div&gt;input high?&lt;/div&gt;" style="strokeWidth=2;html=1;shape=mxgraph.flowchart.decision;whiteSpace=wrap;fillColor=#d5e8d4;strokeColor=#82b366;" vertex="1" parent="BE4b9odS7JJcmuCLsfvv-1">
          <mxGeometry x="120" y="310" width="100" height="100" as="geometry" />
        </mxCell>
        <mxCell id="ljqrpDVs2nWzhOfp307L-23" style="edgeStyle=orthogonalEdgeStyle;rounded=0;orthogonalLoop=1;jettySize=auto;html=1;entryX=0;entryY=0.5;entryDx=0;entryDy=0;" edge="1" parent="BE4b9odS7JJcmuCLsfvv-1" source="iDULUNQiDRfPk5zGLDx2-2" target="ljqrpDVs2nWzhOfp307L-19">
          <mxGeometry relative="1" as="geometry">
            <mxPoint x="250" y="490" as="targetPoint" />
          </mxGeometry>
        </mxCell>
        <mxCell id="ljqrpDVs2nWzhOfp307L-30" value="T" style="edgeLabel;html=1;align=center;verticalAlign=middle;resizable=0;points=[];" vertex="1" connectable="0" parent="ljqrpDVs2nWzhOfp307L-23">
          <mxGeometry x="-0.2466" relative="1" as="geometry">
            <mxPoint x="-5" y="-10" as="offset" />
          </mxGeometry>
        </mxCell>
        <mxCell id="ljqrpDVs2nWzhOfp307L-26" style="edgeStyle=orthogonalEdgeStyle;rounded=0;orthogonalLoop=1;jettySize=auto;html=1;entryX=0.455;entryY=0.01;entryDx=0;entryDy=0;entryPerimeter=0;" edge="1" parent="BE4b9odS7JJcmuCLsfvv-1" source="iDULUNQiDRfPk5zGLDx2-2" target="ljqrpDVs2nWzhOfp307L-17">
          <mxGeometry relative="1" as="geometry">
            <Array as="points">
              <mxPoint x="60" y="490" />
              <mxPoint x="60" y="570" />
              <mxPoint x="160" y="570" />
              <mxPoint x="160" y="606" />
            </Array>
          </mxGeometry>
        </mxCell>
        <mxCell id="ljqrpDVs2nWzhOfp307L-31" value="F" style="edgeLabel;html=1;align=center;verticalAlign=middle;resizable=0;points=[];" vertex="1" connectable="0" parent="ljqrpDVs2nWzhOfp307L-26">
          <mxGeometry x="-0.7888" relative="1" as="geometry">
            <mxPoint x="18" y="-10" as="offset" />
          </mxGeometry>
        </mxCell>
        <mxCell id="iDULUNQiDRfPk5zGLDx2-2" value="10ms elapsed since last LIDAR measurement?" style="strokeWidth=2;html=1;shape=mxgraph.flowchart.decision;whiteSpace=wrap;fillColor=#d5e8d4;strokeColor=#82b366;" vertex="1" parent="BE4b9odS7JJcmuCLsfvv-1">
          <mxGeometry x="120" y="445" width="100" height="100" as="geometry" />
        </mxCell>
        <mxCell id="iDULUNQiDRfPk5zGLDx2-9" value="T" style="edgeStyle=orthogonalEdgeStyle;rounded=0;orthogonalLoop=1;jettySize=auto;html=1;entryX=0;entryY=0.5;entryDx=0;entryDy=0;" edge="1" parent="BE4b9odS7JJcmuCLsfvv-1" source="iDULUNQiDRfPk5zGLDx2-6" target="iDULUNQiDRfPk5zGLDx2-12">
          <mxGeometry x="0.1111" y="10" relative="1" as="geometry">
            <mxPoint x="310" y="865" as="targetPoint" />
            <mxPoint as="offset" />
          </mxGeometry>
        </mxCell>
        <mxCell id="iDULUNQiDRfPk5zGLDx2-17" style="edgeStyle=orthogonalEdgeStyle;rounded=0;orthogonalLoop=1;jettySize=auto;html=1;entryX=0.5;entryY=0;entryDx=0;entryDy=0;" edge="1" parent="BE4b9odS7JJcmuCLsfvv-1" source="iDULUNQiDRfPk5zGLDx2-6" target="iDULUNQiDRfPk5zGLDx2-15">
          <mxGeometry relative="1" as="geometry">
            <mxPoint x="160" y="975" as="targetPoint" />
            <Array as="points">
              <mxPoint x="50" y="850" />
              <mxPoint x="50" y="920" />
              <mxPoint x="160" y="920" />
            </Array>
          </mxGeometry>
        </mxCell>
        <mxCell id="ljqrpDVs2nWzhOfp307L-37" value="F" style="edgeLabel;html=1;align=center;verticalAlign=middle;resizable=0;points=[];" vertex="1" connectable="0" parent="iDULUNQiDRfPk5zGLDx2-17">
          <mxGeometry x="-0.8596" y="-1" relative="1" as="geometry">
            <mxPoint y="-14" as="offset" />
          </mxGeometry>
        </mxCell>
        <mxCell id="iDULUNQiDRfPk5zGLDx2-6" value="Satisfied warning condition?" style="strokeWidth=2;html=1;shape=mxgraph.flowchart.decision;whiteSpace=wrap;fillColor=#d5e8d4;strokeColor=#82b366;" vertex="1" parent="BE4b9odS7JJcmuCLsfvv-1">
          <mxGeometry x="115" y="800" width="100" height="100" as="geometry" />
        </mxCell>
        <mxCell id="iDULUNQiDRfPk5zGLDx2-11" value="" style="group" vertex="1" connectable="0" parent="BE4b9odS7JJcmuCLsfvv-1">
          <mxGeometry x="250" y="815" width="130" height="70" as="geometry" />
        </mxCell>
        <mxCell id="iDULUNQiDRfPk5zGLDx2-12" value="" style="verticalLabelPosition=bottom;verticalAlign=top;html=1;shape=process;whiteSpace=wrap;rounded=1;size=0.14;arcSize=6;fillColor=#fff2cc;strokeColor=#d6b656;" vertex="1" parent="iDULUNQiDRfPk5zGLDx2-11">
          <mxGeometry width="130" height="70" as="geometry" />
        </mxCell>
        <mxCell id="BE4b9odS7JJcmuCLsfvv-22" value="&lt;div&gt;Send warning&lt;/div&gt;&lt;div&gt;via digital output&lt;br&gt;&lt;/div&gt;" style="text;html=1;strokeColor=none;fillColor=none;align=center;verticalAlign=middle;whiteSpace=wrap;rounded=0;" vertex="1" parent="iDULUNQiDRfPk5zGLDx2-11">
          <mxGeometry x="30" y="20" width="60" height="30" as="geometry" />
        </mxCell>
        <mxCell id="iDULUNQiDRfPk5zGLDx2-14" value="" style="group" vertex="1" connectable="0" parent="BE4b9odS7JJcmuCLsfvv-1">
          <mxGeometry x="95" y="960" width="130" height="70" as="geometry" />
        </mxCell>
        <mxCell id="iDULUNQiDRfPk5zGLDx2-15" value="" style="verticalLabelPosition=bottom;verticalAlign=top;html=1;shape=process;whiteSpace=wrap;rounded=1;size=0.14;arcSize=6;fillColor=#fff2cc;strokeColor=#d6b656;" vertex="1" parent="iDULUNQiDRfPk5zGLDx2-14">
          <mxGeometry width="130" height="70" as="geometry" />
        </mxCell>
        <mxCell id="iDULUNQiDRfPk5zGLDx2-16" value="Output Torque To 8-bit DAC" style="text;html=1;strokeColor=none;fillColor=none;align=center;verticalAlign=middle;whiteSpace=wrap;rounded=0;" vertex="1" parent="iDULUNQiDRfPk5zGLDx2-14">
          <mxGeometry x="30" y="20" width="60" height="30" as="geometry" />
        </mxCell>
        <mxCell id="ljqrpDVs2nWzhOfp307L-1" value="" style="group" vertex="1" connectable="0" parent="BE4b9odS7JJcmuCLsfvv-1">
          <mxGeometry x="100" y="710" width="130" height="70" as="geometry" />
        </mxCell>
        <mxCell id="ljqrpDVs2nWzhOfp307L-2" value="" style="verticalLabelPosition=bottom;verticalAlign=top;html=1;shape=process;whiteSpace=wrap;rounded=1;size=0.14;arcSize=6;fillColor=#fff2cc;strokeColor=#d6b656;" vertex="1" parent="ljqrpDVs2nWzhOfp307L-1">
          <mxGeometry width="130" height="70" as="geometry" />
        </mxCell>
        <mxCell id="ljqrpDVs2nWzhOfp307L-3" value="Calculate braking distance, braking torque" style="text;html=1;strokeColor=none;fillColor=none;align=center;verticalAlign=middle;whiteSpace=wrap;rounded=0;" vertex="1" parent="ljqrpDVs2nWzhOfp307L-1">
          <mxGeometry x="35" y="20" width="60" height="30" as="geometry" />
        </mxCell>
        <mxCell id="ljqrpDVs2nWzhOfp307L-7" style="edgeStyle=orthogonalEdgeStyle;rounded=0;orthogonalLoop=1;jettySize=auto;html=1;" edge="1" parent="BE4b9odS7JJcmuCLsfvv-1" source="ljqrpDVs2nWzhOfp307L-2" target="iDULUNQiDRfPk5zGLDx2-6">
          <mxGeometry relative="1" as="geometry" />
        </mxCell>
        <mxCell id="ljqrpDVs2nWzhOfp307L-10" style="edgeStyle=orthogonalEdgeStyle;rounded=0;orthogonalLoop=1;jettySize=auto;html=1;" edge="1" parent="BE4b9odS7JJcmuCLsfvv-1" source="iDULUNQiDRfPk5zGLDx2-15">
          <mxGeometry relative="1" as="geometry">
            <mxPoint x="430" y="850" as="targetPoint" />
          </mxGeometry>
        </mxCell>
        <mxCell id="Fx_FsqtWgzgns6y88H-w-0" value="" style="rounded=0;whiteSpace=wrap;html=1;strokeColor=#d6b656;opacity=40;fillColor=#fff2cc;strokeWidth=3;" vertex="1" parent="BE4b9odS7JJcmuCLsfvv-1">
          <mxGeometry x="880" y="30" width="210" height="645" as="geometry" />
        </mxCell>
        <mxCell id="ljqrpDVs2nWzhOfp307L-22" value="" style="group" vertex="1" connectable="0" parent="BE4b9odS7JJcmuCLsfvv-1">
          <mxGeometry x="250" y="460" width="130" height="70" as="geometry" />
        </mxCell>
        <mxCell id="ljqrpDVs2nWzhOfp307L-19" value="" style="verticalLabelPosition=bottom;verticalAlign=top;html=1;shape=process;whiteSpace=wrap;rounded=1;size=0.14;arcSize=6;fillColor=#fff2cc;strokeColor=#d6b656;" vertex="1" parent="ljqrpDVs2nWzhOfp307L-22">
          <mxGeometry width="130" height="70" as="geometry" />
        </mxCell>
        <mxCell id="ljqrpDVs2nWzhOfp307L-20" value="Take LIDAR Input" style="text;html=1;strokeColor=none;fillColor=none;align=center;verticalAlign=middle;whiteSpace=wrap;rounded=0;" vertex="1" parent="ljqrpDVs2nWzhOfp307L-22">
          <mxGeometry x="35" y="20" width="60" height="30" as="geometry" />
        </mxCell>
        <mxCell id="ljqrpDVs2nWzhOfp307L-24" value="" style="group" vertex="1" connectable="0" parent="BE4b9odS7JJcmuCLsfvv-1">
          <mxGeometry x="100" y="605" width="130" height="70" as="geometry" />
        </mxCell>
        <mxCell id="ljqrpDVs2nWzhOfp307L-17" value="" style="verticalLabelPosition=bottom;verticalAlign=top;html=1;shape=process;whiteSpace=wrap;rounded=1;size=0.14;arcSize=6;fillColor=#fff2cc;strokeColor=#d6b656;" vertex="1" parent="ljqrpDVs2nWzhOfp307L-24">
          <mxGeometry width="130" height="70" as="geometry" />
        </mxCell>
        <mxCell id="ljqrpDVs2nWzhOfp307L-18" value="Take encoder Input" style="text;html=1;strokeColor=none;fillColor=none;align=center;verticalAlign=middle;whiteSpace=wrap;rounded=0;" vertex="1" parent="ljqrpDVs2nWzhOfp307L-24">
          <mxGeometry x="35" y="20" width="60" height="30" as="geometry" />
        </mxCell>
        <mxCell id="ljqrpDVs2nWzhOfp307L-29" style="edgeStyle=orthogonalEdgeStyle;rounded=0;orthogonalLoop=1;jettySize=auto;html=1;exitX=1;exitY=0.5;exitDx=0;exitDy=0;endArrow=none;endFill=0;" edge="1" parent="BE4b9odS7JJcmuCLsfvv-1" source="ljqrpDVs2nWzhOfp307L-19">
          <mxGeometry relative="1" as="geometry">
            <mxPoint x="160" y="600" as="targetPoint" />
            <Array as="points">
              <mxPoint x="400" y="495" />
              <mxPoint x="400" y="570" />
              <mxPoint x="160" y="570" />
            </Array>
          </mxGeometry>
        </mxCell>
        <mxCell id="ljqrpDVs2nWzhOfp307L-35" style="edgeStyle=orthogonalEdgeStyle;rounded=0;orthogonalLoop=1;jettySize=auto;html=1;endArrow=classic;endFill=1;entryX=0.5;entryY=0;entryDx=0;entryDy=0;" edge="1" parent="BE4b9odS7JJcmuCLsfvv-1" source="ljqrpDVs2nWzhOfp307L-17" target="ljqrpDVs2nWzhOfp307L-2">
          <mxGeometry relative="1" as="geometry">
            <mxPoint x="140" y="770" as="targetPoint" />
          </mxGeometry>
        </mxCell>
        <mxCell id="hSBOZVNV73_6fab6uhYW-0" value="" style="group" vertex="1" connectable="0" parent="BE4b9odS7JJcmuCLsfvv-1">
          <mxGeometry x="920" y="45" width="130" height="70" as="geometry" />
        </mxCell>
        <mxCell id="hSBOZVNV73_6fab6uhYW-1" value="" style="verticalLabelPosition=bottom;verticalAlign=top;html=1;shape=process;whiteSpace=wrap;rounded=1;size=0.14;arcSize=6;fillColor=#fff2cc;strokeColor=#d6b656;" vertex="1" parent="hSBOZVNV73_6fab6uhYW-0">
          <mxGeometry width="130" height="70" as="geometry" />
        </mxCell>
        <mxCell id="hSBOZVNV73_6fab6uhYW-2" value="Take LIDAR Input" style="text;html=1;strokeColor=none;fillColor=none;align=center;verticalAlign=middle;whiteSpace=wrap;rounded=0;" vertex="1" parent="hSBOZVNV73_6fab6uhYW-0">
          <mxGeometry x="35" y="20" width="60" height="30" as="geometry" />
        </mxCell>
        <mxCell id="Fx_FsqtWgzgns6y88H-w-6" style="edgeStyle=orthogonalEdgeStyle;rounded=0;orthogonalLoop=1;jettySize=auto;html=1;endArrow=classic;endFill=1;" edge="1" parent="BE4b9odS7JJcmuCLsfvv-1" source="Fx_FsqtWgzgns6y88H-w-5" target="BE4b9odS7JJcmuCLsfvv-10">
          <mxGeometry relative="1" as="geometry" />
        </mxCell>
        <mxCell id="Fx_FsqtWgzgns6y88H-w-5" value="&lt;div&gt;Read AEB Input&lt;br&gt;&lt;/div&gt;&lt;div&gt;&amp;nbsp;Signal&lt;/div&gt;" style="shape=parallelogram;html=1;strokeWidth=2;perimeter=parallelogramPerimeter;whiteSpace=wrap;rounded=1;arcSize=12;size=0.23;fillColor=#f8cecc;strokeColor=#b85450;sketch=0;" vertex="1" parent="BE4b9odS7JJcmuCLsfvv-1">
          <mxGeometry x="90" y="210" width="160" height="50" as="geometry" />
        </mxCell>
        <mxCell id="Fx_FsqtWgzgns6y88H-w-8" style="edgeStyle=orthogonalEdgeStyle;rounded=0;orthogonalLoop=1;jettySize=auto;html=1;endArrow=classic;endFill=1;" edge="1" parent="BE4b9odS7JJcmuCLsfvv-1" source="iDULUNQiDRfPk5zGLDx2-12">
          <mxGeometry relative="1" as="geometry">
            <mxPoint x="170" y="190" as="targetPoint" />
            <Array as="points">
              <mxPoint x="430" y="850" />
              <mxPoint x="430" y="190" />
            </Array>
          </mxGeometry>
        </mxCell>
        <mxCell id="Fx_FsqtWgzgns6y88H-w-9" value="&lt;div&gt;Read LIDAR Input&lt;br&gt;&lt;/div&gt;&lt;div&gt;&amp;nbsp;Voltage&lt;/div&gt;" style="shape=parallelogram;html=1;strokeWidth=2;perimeter=parallelogramPerimeter;whiteSpace=wrap;rounded=1;arcSize=12;size=0.23;fillColor=#f8cecc;strokeColor=#b85450;sketch=0;" vertex="1" parent="BE4b9odS7JJcmuCLsfvv-1">
          <mxGeometry x="903.5" y="205" width="160" height="50" as="geometry" />
        </mxCell>
        <mxCell id="Fx_FsqtWgzgns6y88H-w-10" value="Convert To Distance Via Interpolation" style="rounded=0;whiteSpace=wrap;html=1;fillColor=#dae8fc;strokeColor=#6c8ebf;sketch=0;" vertex="1" parent="BE4b9odS7JJcmuCLsfvv-1">
          <mxGeometry x="920" y="275" width="120" height="60" as="geometry" />
        </mxCell>
        <mxCell id="Fx_FsqtWgzgns6y88H-w-17" style="edgeStyle=orthogonalEdgeStyle;rounded=0;orthogonalLoop=1;jettySize=auto;html=1;endArrow=classic;endFill=1;" edge="1" parent="BE4b9odS7JJcmuCLsfvv-1" source="Fx_FsqtWgzgns6y88H-w-11" target="Fx_FsqtWgzgns6y88H-w-9">
          <mxGeometry relative="1" as="geometry" />
        </mxCell>
        <mxCell id="Fx_FsqtWgzgns6y88H-w-11" value="&lt;div&gt;Start&lt;/div&gt;" style="strokeWidth=2;html=1;shape=mxgraph.flowchart.start_1;whiteSpace=wrap;" vertex="1" parent="BE4b9odS7JJcmuCLsfvv-1">
          <mxGeometry x="933.5" y="125" width="100" height="60" as="geometry" />
        </mxCell>
        <mxCell id="Fx_FsqtWgzgns6y88H-w-24" style="edgeStyle=orthogonalEdgeStyle;rounded=0;orthogonalLoop=1;jettySize=auto;html=1;entryX=0.5;entryY=0;entryDx=0;entryDy=0;endArrow=classic;endFill=1;" edge="1" parent="BE4b9odS7JJcmuCLsfvv-1" source="Fx_FsqtWgzgns6y88H-w-13" target="Fx_FsqtWgzgns6y88H-w-16">
          <mxGeometry relative="1" as="geometry" />
        </mxCell>
        <mxCell id="Fx_FsqtWgzgns6y88H-w-13" value="Move Elements In Buffer Down By 1 Index" style="rounded=0;whiteSpace=wrap;html=1;fillColor=#dae8fc;strokeColor=#6c8ebf;sketch=0;" vertex="1" parent="BE4b9odS7JJcmuCLsfvv-1">
          <mxGeometry x="920" y="435" width="120" height="60" as="geometry" />
        </mxCell>
        <mxCell id="Fx_FsqtWgzgns6y88H-w-23" style="edgeStyle=orthogonalEdgeStyle;rounded=0;orthogonalLoop=1;jettySize=auto;html=1;entryX=0.5;entryY=0;entryDx=0;entryDy=0;endArrow=classic;endFill=1;" edge="1" parent="BE4b9odS7JJcmuCLsfvv-1" source="Fx_FsqtWgzgns6y88H-w-14" target="Fx_FsqtWgzgns6y88H-w-13">
          <mxGeometry relative="1" as="geometry" />
        </mxCell>
        <mxCell id="Fx_FsqtWgzgns6y88H-w-14" value="Remove Oldest Measurement From Buffer" style="rounded=0;whiteSpace=wrap;html=1;fillColor=#dae8fc;strokeColor=#6c8ebf;sketch=0;" vertex="1" parent="BE4b9odS7JJcmuCLsfvv-1">
          <mxGeometry x="920" y="355" width="120" height="60" as="geometry" />
        </mxCell>
        <mxCell id="Fx_FsqtWgzgns6y88H-w-25" style="edgeStyle=orthogonalEdgeStyle;rounded=0;orthogonalLoop=1;jettySize=auto;html=1;entryX=0.5;entryY=0;entryDx=0;entryDy=0;entryPerimeter=0;endArrow=classic;endFill=1;" edge="1" parent="BE4b9odS7JJcmuCLsfvv-1" source="Fx_FsqtWgzgns6y88H-w-16" target="Fx_FsqtWgzgns6y88H-w-12">
          <mxGeometry relative="1" as="geometry" />
        </mxCell>
        <mxCell id="Fx_FsqtWgzgns6y88H-w-16" value="Add New Measurement To Back Of Buffer" style="rounded=0;whiteSpace=wrap;html=1;fillColor=#dae8fc;strokeColor=#6c8ebf;sketch=0;" vertex="1" parent="BE4b9odS7JJcmuCLsfvv-1">
          <mxGeometry x="920" y="515" width="120" height="60" as="geometry" />
        </mxCell>
        <mxCell id="Fx_FsqtWgzgns6y88H-w-12" value="return" style="strokeWidth=2;html=1;shape=mxgraph.flowchart.terminator;whiteSpace=wrap;fillColor=#FFFFFF;" vertex="1" parent="BE4b9odS7JJcmuCLsfvv-1">
          <mxGeometry x="930" y="600" width="100" height="60" as="geometry" />
        </mxCell>
        <mxCell id="Fx_FsqtWgzgns6y88H-w-19" style="edgeStyle=orthogonalEdgeStyle;rounded=0;orthogonalLoop=1;jettySize=auto;html=1;endArrow=classic;endFill=1;" edge="1" parent="BE4b9odS7JJcmuCLsfvv-1">
          <mxGeometry relative="1" as="geometry">
            <mxPoint x="979.8299999999999" y="255" as="sourcePoint" />
            <mxPoint x="979.8299999999999" y="275" as="targetPoint" />
          </mxGeometry>
        </mxCell>
        <mxCell id="Fx_FsqtWgzgns6y88H-w-20" style="edgeStyle=orthogonalEdgeStyle;rounded=0;orthogonalLoop=1;jettySize=auto;html=1;endArrow=classic;endFill=1;" edge="1" parent="BE4b9odS7JJcmuCLsfvv-1">
          <mxGeometry relative="1" as="geometry">
            <mxPoint x="979.8299999999999" y="335" as="sourcePoint" />
            <mxPoint x="979.8299999999999" y="355" as="targetPoint" />
          </mxGeometry>
        </mxCell>
        <mxCell id="Fx_FsqtWgzgns6y88H-w-45" value="" style="rounded=0;whiteSpace=wrap;html=1;strokeColor=#d6b656;opacity=40;fillColor=#fff2cc;strokeWidth=3;" vertex="1" parent="BE4b9odS7JJcmuCLsfvv-1">
          <mxGeometry x="1160" y="30" width="190" height="410" as="geometry" />
        </mxCell>
        <mxCell id="Fx_FsqtWgzgns6y88H-w-49" value="&lt;div&gt;Read EncoderInput&lt;br&gt;&lt;/div&gt;&lt;div&gt;&amp;nbsp;Voltage&lt;/div&gt;" style="shape=parallelogram;html=1;strokeWidth=2;perimeter=parallelogramPerimeter;whiteSpace=wrap;rounded=1;arcSize=12;size=0.23;fillColor=#f8cecc;strokeColor=#b85450;sketch=0;" vertex="1" parent="BE4b9odS7JJcmuCLsfvv-1">
          <mxGeometry x="1175" y="210" width="160" height="50" as="geometry" />
        </mxCell>
        <mxCell id="Fx_FsqtWgzgns6y88H-w-50" value="Convert To Velocity Via Interpolation" style="rounded=0;whiteSpace=wrap;html=1;fillColor=#dae8fc;strokeColor=#6c8ebf;sketch=0;" vertex="1" parent="BE4b9odS7JJcmuCLsfvv-1">
          <mxGeometry x="1191.5" y="280" width="120" height="60" as="geometry" />
        </mxCell>
        <mxCell id="Fx_FsqtWgzgns6y88H-w-51" style="edgeStyle=orthogonalEdgeStyle;rounded=0;orthogonalLoop=1;jettySize=auto;html=1;endArrow=classic;endFill=1;" edge="1" parent="BE4b9odS7JJcmuCLsfvv-1" source="Fx_FsqtWgzgns6y88H-w-52" target="Fx_FsqtWgzgns6y88H-w-49">
          <mxGeometry relative="1" as="geometry" />
        </mxCell>
        <mxCell id="Fx_FsqtWgzgns6y88H-w-52" value="&lt;div&gt;Start&lt;/div&gt;" style="strokeWidth=2;html=1;shape=mxgraph.flowchart.start_1;whiteSpace=wrap;" vertex="1" parent="BE4b9odS7JJcmuCLsfvv-1">
          <mxGeometry x="1205" y="130" width="100" height="60" as="geometry" />
        </mxCell>
        <mxCell id="Fx_FsqtWgzgns6y88H-w-59" value="return" style="strokeWidth=2;html=1;shape=mxgraph.flowchart.terminator;whiteSpace=wrap;fillColor=#FFFFFF;" vertex="1" parent="BE4b9odS7JJcmuCLsfvv-1">
          <mxGeometry x="1201.5" y="365" width="100" height="60" as="geometry" />
        </mxCell>
        <mxCell id="Fx_FsqtWgzgns6y88H-w-60" style="edgeStyle=orthogonalEdgeStyle;rounded=0;orthogonalLoop=1;jettySize=auto;html=1;endArrow=classic;endFill=1;" edge="1" parent="BE4b9odS7JJcmuCLsfvv-1">
          <mxGeometry relative="1" as="geometry">
            <mxPoint x="1251.33" y="260" as="sourcePoint" />
            <mxPoint x="1251.33" y="280" as="targetPoint" />
          </mxGeometry>
        </mxCell>
        <mxCell id="Fx_FsqtWgzgns6y88H-w-61" style="edgeStyle=orthogonalEdgeStyle;rounded=0;orthogonalLoop=1;jettySize=auto;html=1;endArrow=classic;endFill=1;" edge="1" parent="BE4b9odS7JJcmuCLsfvv-1">
          <mxGeometry relative="1" as="geometry">
            <mxPoint x="1251.33" y="340" as="sourcePoint" />
            <mxPoint x="1251.33" y="360" as="targetPoint" />
          </mxGeometry>
        </mxCell>
        <mxCell id="Fx_FsqtWgzgns6y88H-w-66" value="" style="group" vertex="1" connectable="0" parent="BE4b9odS7JJcmuCLsfvv-1">
          <mxGeometry x="1186.5" y="50" width="130" height="70" as="geometry" />
        </mxCell>
        <mxCell id="Fx_FsqtWgzgns6y88H-w-67" value="" style="verticalLabelPosition=bottom;verticalAlign=top;html=1;shape=process;whiteSpace=wrap;rounded=1;size=0.14;arcSize=6;fillColor=#fff2cc;strokeColor=#d6b656;" vertex="1" parent="Fx_FsqtWgzgns6y88H-w-66">
          <mxGeometry width="130" height="70" as="geometry" />
        </mxCell>
        <mxCell id="Fx_FsqtWgzgns6y88H-w-68" value="Take encoder Input" style="text;html=1;strokeColor=none;fillColor=none;align=center;verticalAlign=middle;whiteSpace=wrap;rounded=0;" vertex="1" parent="Fx_FsqtWgzgns6y88H-w-66">
          <mxGeometry x="35" y="20" width="60" height="30" as="geometry" />
        </mxCell>
        <mxCell id="Fx_FsqtWgzgns6y88H-w-80" value="" style="rounded=0;whiteSpace=wrap;html=1;strokeColor=#d6b656;opacity=40;fillColor=#fff2cc;strokeWidth=3;" vertex="1" parent="BE4b9odS7JJcmuCLsfvv-1">
          <mxGeometry x="1410" y="30" width="190" height="570" as="geometry" />
        </mxCell>
        <mxCell id="Fx_FsqtWgzgns6y88H-w-83" style="edgeStyle=orthogonalEdgeStyle;rounded=0;orthogonalLoop=1;jettySize=auto;html=1;endArrow=classic;endFill=1;" edge="1" parent="BE4b9odS7JJcmuCLsfvv-1" source="Fx_FsqtWgzgns6y88H-w-84">
          <mxGeometry relative="1" as="geometry">
            <mxPoint x="1505.0000000000005" y="210" as="targetPoint" />
          </mxGeometry>
        </mxCell>
        <mxCell id="Fx_FsqtWgzgns6y88H-w-84" value="&lt;div&gt;Start&lt;/div&gt;" style="strokeWidth=2;html=1;shape=mxgraph.flowchart.start_1;whiteSpace=wrap;" vertex="1" parent="BE4b9odS7JJcmuCLsfvv-1">
          <mxGeometry x="1455" y="130" width="100" height="60" as="geometry" />
        </mxCell>
        <mxCell id="Fx_FsqtWgzgns6y88H-w-85" value="return" style="strokeWidth=2;html=1;shape=mxgraph.flowchart.terminator;whiteSpace=wrap;fillColor=#FFFFFF;" vertex="1" parent="BE4b9odS7JJcmuCLsfvv-1">
          <mxGeometry x="1455" y="520" width="100" height="60" as="geometry" />
        </mxCell>
        <mxCell id="Fx_FsqtWgzgns6y88H-w-91" value="" style="group" vertex="1" connectable="0" parent="BE4b9odS7JJcmuCLsfvv-1">
          <mxGeometry x="1441.5" y="45" width="130" height="70" as="geometry" />
        </mxCell>
        <mxCell id="Fx_FsqtWgzgns6y88H-w-92" value="" style="verticalLabelPosition=bottom;verticalAlign=top;html=1;shape=process;whiteSpace=wrap;rounded=1;size=0.14;arcSize=6;fillColor=#fff2cc;strokeColor=#d6b656;" vertex="1" parent="Fx_FsqtWgzgns6y88H-w-91">
          <mxGeometry width="130" height="70" as="geometry" />
        </mxCell>
        <mxCell id="Fx_FsqtWgzgns6y88H-w-93" value="Calculate braking distance, braking torque" style="text;html=1;strokeColor=none;fillColor=none;align=center;verticalAlign=middle;whiteSpace=wrap;rounded=0;" vertex="1" parent="Fx_FsqtWgzgns6y88H-w-91">
          <mxGeometry x="35" y="20" width="60" height="30" as="geometry" />
        </mxCell>
        <mxCell id="Fx_FsqtWgzgns6y88H-w-98" style="edgeStyle=orthogonalEdgeStyle;rounded=0;orthogonalLoop=1;jettySize=auto;html=1;endArrow=classic;endFill=1;" edge="1" parent="BE4b9odS7JJcmuCLsfvv-1" source="Fx_FsqtWgzgns6y88H-w-94" target="Fx_FsqtWgzgns6y88H-w-95">
          <mxGeometry relative="1" as="geometry" />
        </mxCell>
        <mxCell id="Fx_FsqtWgzgns6y88H-w-94" value="Calculate Vehicle Linear Velocity" style="rounded=0;whiteSpace=wrap;html=1;fillColor=#dae8fc;strokeColor=#6c8ebf;sketch=0;" vertex="1" parent="BE4b9odS7JJcmuCLsfvv-1">
          <mxGeometry x="1445" y="210" width="120" height="60" as="geometry" />
        </mxCell>
        <mxCell id="Fx_FsqtWgzgns6y88H-w-99" style="edgeStyle=orthogonalEdgeStyle;rounded=0;orthogonalLoop=1;jettySize=auto;html=1;endArrow=classic;endFill=1;" edge="1" parent="BE4b9odS7JJcmuCLsfvv-1" source="Fx_FsqtWgzgns6y88H-w-95" target="Fx_FsqtWgzgns6y88H-w-96">
          <mxGeometry relative="1" as="geometry" />
        </mxCell>
        <mxCell id="Fx_FsqtWgzgns6y88H-w-95" value="&lt;div&gt;Calculate Minimum Braking Distance&lt;/div&gt;" style="rounded=0;whiteSpace=wrap;html=1;fillColor=#dae8fc;strokeColor=#6c8ebf;sketch=0;" vertex="1" parent="BE4b9odS7JJcmuCLsfvv-1">
          <mxGeometry x="1445" y="285" width="120" height="60" as="geometry" />
        </mxCell>
        <mxCell id="Fx_FsqtWgzgns6y88H-w-100" style="edgeStyle=orthogonalEdgeStyle;rounded=0;orthogonalLoop=1;jettySize=auto;html=1;endArrow=classic;endFill=1;" edge="1" parent="BE4b9odS7JJcmuCLsfvv-1" source="Fx_FsqtWgzgns6y88H-w-96" target="Fx_FsqtWgzgns6y88H-w-97">
          <mxGeometry relative="1" as="geometry" />
        </mxCell>
        <mxCell id="Fx_FsqtWgzgns6y88H-w-96" value="&lt;div&gt;Calculate Relative Velocity&lt;br&gt;&lt;/div&gt;" style="rounded=0;whiteSpace=wrap;html=1;fillColor=#dae8fc;strokeColor=#6c8ebf;sketch=0;" vertex="1" parent="BE4b9odS7JJcmuCLsfvv-1">
          <mxGeometry x="1445" y="360" width="120" height="60" as="geometry" />
        </mxCell>
        <mxCell id="Fx_FsqtWgzgns6y88H-w-102" style="edgeStyle=orthogonalEdgeStyle;rounded=0;orthogonalLoop=1;jettySize=auto;html=1;endArrow=classic;endFill=1;" edge="1" parent="BE4b9odS7JJcmuCLsfvv-1" source="Fx_FsqtWgzgns6y88H-w-97" target="Fx_FsqtWgzgns6y88H-w-85">
          <mxGeometry relative="1" as="geometry" />
        </mxCell>
        <mxCell id="Fx_FsqtWgzgns6y88H-w-97" value="&lt;div&gt;Calculate Braking Torque&lt;br&gt;&lt;/div&gt;" style="rounded=0;whiteSpace=wrap;html=1;fillColor=#dae8fc;strokeColor=#6c8ebf;sketch=0;" vertex="1" parent="BE4b9odS7JJcmuCLsfvv-1">
          <mxGeometry x="1445" y="435" width="120" height="60" as="geometry" />
        </mxCell>
        <mxCell id="Fx_FsqtWgzgns6y88H-w-103" value="" style="rounded=0;whiteSpace=wrap;html=1;strokeColor=#d6b656;opacity=40;fillColor=#fff2cc;strokeWidth=3;" vertex="1" parent="BE4b9odS7JJcmuCLsfvv-1">
          <mxGeometry x="1130" y="460" width="250" height="470" as="geometry" />
        </mxCell>
        <mxCell id="Fx_FsqtWgzgns6y88H-w-106" style="edgeStyle=orthogonalEdgeStyle;rounded=0;orthogonalLoop=1;jettySize=auto;html=1;endArrow=classic;endFill=1;" edge="1" parent="BE4b9odS7JJcmuCLsfvv-1" source="Fx_FsqtWgzgns6y88H-w-107">
          <mxGeometry relative="1" as="geometry">
            <mxPoint x="1250" y="640" as="targetPoint" />
          </mxGeometry>
        </mxCell>
        <mxCell id="Fx_FsqtWgzgns6y88H-w-107" value="&lt;div&gt;Start&lt;/div&gt;" style="strokeWidth=2;html=1;shape=mxgraph.flowchart.start_1;whiteSpace=wrap;" vertex="1" parent="BE4b9odS7JJcmuCLsfvv-1">
          <mxGeometry x="1200" y="560" width="100" height="60" as="geometry" />
        </mxCell>
        <mxCell id="Fx_FsqtWgzgns6y88H-w-108" value="return" style="strokeWidth=2;html=1;shape=mxgraph.flowchart.terminator;whiteSpace=wrap;fillColor=#FFFFFF;" vertex="1" parent="BE4b9odS7JJcmuCLsfvv-1">
          <mxGeometry x="1200" y="860" width="100" height="60" as="geometry" />
        </mxCell>
        <mxCell id="Fx_FsqtWgzgns6y88H-w-111" value="" style="group" vertex="1" connectable="0" parent="BE4b9odS7JJcmuCLsfvv-1">
          <mxGeometry x="1185" y="470" width="130" height="70" as="geometry" />
        </mxCell>
        <mxCell id="Fx_FsqtWgzgns6y88H-w-112" value="" style="verticalLabelPosition=bottom;verticalAlign=top;html=1;shape=process;whiteSpace=wrap;rounded=1;size=0.14;arcSize=6;fillColor=#fff2cc;strokeColor=#d6b656;" vertex="1" parent="Fx_FsqtWgzgns6y88H-w-111">
          <mxGeometry width="130" height="70" as="geometry" />
        </mxCell>
        <mxCell id="Fx_FsqtWgzgns6y88H-w-113" value="Send Warning Signal Via Digital Output" style="text;html=1;strokeColor=none;fillColor=none;align=center;verticalAlign=middle;whiteSpace=wrap;rounded=0;" vertex="1" parent="Fx_FsqtWgzgns6y88H-w-111">
          <mxGeometry x="35" y="20" width="60" height="30" as="geometry" />
        </mxCell>
        <mxCell id="Fx_FsqtWgzgns6y88H-w-120" style="edgeStyle=orthogonalEdgeStyle;rounded=0;orthogonalLoop=1;jettySize=auto;html=1;endArrow=classic;endFill=1;" edge="1" parent="BE4b9odS7JJcmuCLsfvv-1" source="Fx_FsqtWgzgns6y88H-w-115">
          <mxGeometry relative="1" as="geometry">
            <mxPoint x="1250" y="710" as="targetPoint" />
            <mxPoint x="1160" y="770" as="sourcePoint" />
            <Array as="points">
              <mxPoint x="1160" y="778" />
              <mxPoint x="1160" y="710" />
            </Array>
          </mxGeometry>
        </mxCell>
        <mxCell id="Fx_FsqtWgzgns6y88H-w-124" value="T" style="edgeLabel;html=1;align=center;verticalAlign=middle;resizable=0;points=[];" vertex="1" connectable="0" parent="Fx_FsqtWgzgns6y88H-w-120">
          <mxGeometry x="-0.8712" y="-1" relative="1" as="geometry">
            <mxPoint x="3" y="-7" as="offset" />
          </mxGeometry>
        </mxCell>
        <mxCell id="Fx_FsqtWgzgns6y88H-w-122" style="edgeStyle=orthogonalEdgeStyle;rounded=0;orthogonalLoop=1;jettySize=auto;html=1;endArrow=classic;endFill=1;entryX=0.5;entryY=0;entryDx=0;entryDy=0;entryPerimeter=0;exitX=1.013;exitY=0.492;exitDx=0;exitDy=0;exitPerimeter=0;" edge="1" parent="BE4b9odS7JJcmuCLsfvv-1" source="Fx_FsqtWgzgns6y88H-w-115" target="Fx_FsqtWgzgns6y88H-w-108">
          <mxGeometry relative="1" as="geometry">
            <mxPoint x="1140" y="840" as="targetPoint" />
            <Array as="points">
              <mxPoint x="1330" y="779" />
              <mxPoint x="1330" y="840" />
              <mxPoint x="1250" y="840" />
            </Array>
          </mxGeometry>
        </mxCell>
        <mxCell id="Fx_FsqtWgzgns6y88H-w-125" value="F" style="edgeLabel;html=1;align=center;verticalAlign=middle;resizable=0;points=[];" vertex="1" connectable="0" parent="Fx_FsqtWgzgns6y88H-w-122">
          <mxGeometry x="-0.7805" y="-1" relative="1" as="geometry">
            <mxPoint x="-13" y="-10" as="offset" />
          </mxGeometry>
        </mxCell>
        <mxCell id="Fx_FsqtWgzgns6y88H-w-115" value="Has 4 Seconds Elapsed?" style="strokeWidth=2;html=1;shape=mxgraph.flowchart.decision;whiteSpace=wrap;fillColor=#d5e8d4;strokeColor=#82b366;" vertex="1" parent="BE4b9odS7JJcmuCLsfvv-1">
          <mxGeometry x="1200" y="730" width="100" height="100" as="geometry" />
        </mxCell>
        <mxCell id="Fx_FsqtWgzgns6y88H-w-117" style="edgeStyle=orthogonalEdgeStyle;rounded=0;orthogonalLoop=1;jettySize=auto;html=1;entryX=0.5;entryY=0;entryDx=0;entryDy=0;entryPerimeter=0;endArrow=classic;endFill=1;" edge="1" parent="BE4b9odS7JJcmuCLsfvv-1" source="Fx_FsqtWgzgns6y88H-w-116" target="Fx_FsqtWgzgns6y88H-w-115">
          <mxGeometry relative="1" as="geometry" />
        </mxCell>
        <mxCell id="Fx_FsqtWgzgns6y88H-w-116" value="&lt;div&gt;Set Warning&lt;/div&gt;&lt;div&gt;&amp;nbsp;Signal High&lt;/div&gt;" style="shape=parallelogram;html=1;strokeWidth=2;perimeter=parallelogramPerimeter;whiteSpace=wrap;rounded=1;arcSize=12;size=0.23;fillColor=#f8cecc;strokeColor=#b85450;sketch=0;" vertex="1" parent="BE4b9odS7JJcmuCLsfvv-1">
          <mxGeometry x="1170" y="640" width="160" height="50" as="geometry" />
        </mxCell>
        <mxCell id="Fx_FsqtWgzgns6y88H-w-140" style="edgeStyle=orthogonalEdgeStyle;rounded=0;orthogonalLoop=1;jettySize=auto;html=1;entryX=0.5;entryY=0;entryDx=0;entryDy=0;endArrow=classic;endFill=1;" edge="1" parent="BE4b9odS7JJcmuCLsfvv-1" source="Fx_FsqtWgzgns6y88H-w-129" target="Fx_FsqtWgzgns6y88H-w-127">
          <mxGeometry relative="1" as="geometry" />
        </mxCell>
        <mxCell id="Fx_FsqtWgzgns6y88H-w-129" value="&lt;div&gt;Start&lt;/div&gt;" style="strokeWidth=2;html=1;shape=mxgraph.flowchart.start_1;whiteSpace=wrap;" vertex="1" parent="BE4b9odS7JJcmuCLsfvv-1">
          <mxGeometry x="936.5" y="790" width="100" height="60" as="geometry" />
        </mxCell>
        <mxCell id="Fx_FsqtWgzgns6y88H-w-130" value="return" style="strokeWidth=2;html=1;shape=mxgraph.flowchart.terminator;whiteSpace=wrap;fillColor=#FFFFFF;" vertex="1" parent="BE4b9odS7JJcmuCLsfvv-1">
          <mxGeometry x="935" y="1010" width="100" height="60" as="geometry" />
        </mxCell>
        <mxCell id="Fx_FsqtWgzgns6y88H-w-132" style="edgeStyle=orthogonalEdgeStyle;rounded=0;orthogonalLoop=1;jettySize=auto;html=1;endArrow=classic;endFill=1;" edge="1" parent="BE4b9odS7JJcmuCLsfvv-1">
          <mxGeometry relative="1" as="geometry">
            <mxPoint x="986.2399999999999" y="990" as="sourcePoint" />
            <mxPoint x="986.2399999999999" y="1010" as="targetPoint" />
          </mxGeometry>
        </mxCell>
        <mxCell id="Fx_FsqtWgzgns6y88H-w-141" style="edgeStyle=orthogonalEdgeStyle;rounded=0;orthogonalLoop=1;jettySize=auto;html=1;entryX=0.5;entryY=0;entryDx=0;entryDy=0;endArrow=classic;endFill=1;" edge="1" parent="BE4b9odS7JJcmuCLsfvv-1" source="Fx_FsqtWgzgns6y88H-w-127" target="Fx_FsqtWgzgns6y88H-w-126">
          <mxGeometry relative="1" as="geometry" />
        </mxCell>
        <mxCell id="Fx_FsqtWgzgns6y88H-w-127" value="Convert To 0x00-0xFF Via Interpolation" style="rounded=0;whiteSpace=wrap;html=1;fillColor=#dae8fc;strokeColor=#6c8ebf;sketch=0;" vertex="1" parent="BE4b9odS7JJcmuCLsfvv-1">
          <mxGeometry x="926.5" y="865" width="120" height="60" as="geometry" />
        </mxCell>
        <mxCell id="Fx_FsqtWgzgns6y88H-w-133" value="" style="group" vertex="1" connectable="0" parent="BE4b9odS7JJcmuCLsfvv-1">
          <mxGeometry x="921.5" y="710" width="130" height="70" as="geometry" />
        </mxCell>
        <mxCell id="Fx_FsqtWgzgns6y88H-w-134" value="" style="verticalLabelPosition=bottom;verticalAlign=top;html=1;shape=process;whiteSpace=wrap;rounded=1;size=0.14;arcSize=6;fillColor=#fff2cc;strokeColor=#d6b656;" vertex="1" parent="Fx_FsqtWgzgns6y88H-w-133">
          <mxGeometry width="130" height="70" as="geometry" />
        </mxCell>
        <mxCell id="Fx_FsqtWgzgns6y88H-w-135" value="Output Torque To 8-bit DAC" style="text;html=1;strokeColor=none;fillColor=none;align=center;verticalAlign=middle;whiteSpace=wrap;rounded=0;" vertex="1" parent="Fx_FsqtWgzgns6y88H-w-133">
          <mxGeometry x="35" y="20" width="60" height="30" as="geometry" />
        </mxCell>
        <mxCell id="Fx_FsqtWgzgns6y88H-w-126" value="Output to DAC" style="shape=parallelogram;html=1;strokeWidth=2;perimeter=parallelogramPerimeter;whiteSpace=wrap;rounded=1;arcSize=12;size=0.23;fillColor=#f8cecc;strokeColor=#b85450;sketch=0;" vertex="1" parent="BE4b9odS7JJcmuCLsfvv-1">
          <mxGeometry x="906.5" y="940" width="160" height="50" as="geometry" />
        </mxCell>
      </root>
    </mxGraphModel>
  </diagram>
</mxfile>
